<mxfile host="app.diagrams.net" agent="Mozilla/5.0 (X11; Linux x86_64) AppleWebKit/537.36 (KHTML, like Gecko) Chrome/130.0.0.0 Safari/537.36" version="24.7.16">
  <diagram name="Page-1" id="zFyxZJ9HDvcPgiqDjyft">
    <mxGraphModel dx="1368" dy="754" grid="0" gridSize="10" guides="1" tooltips="1" connect="1" arrows="1" fold="1" page="1" pageScale="1" pageWidth="1600" pageHeight="1300" math="0" shadow="0">
      <root>
        <mxCell id="0" />
        <mxCell id="1" parent="0" />
        <mxCell id="P_Gc4P2CAjgiyAQ91wl4-7" value="&lt;font style=&quot;font-size: 16px;&quot;&gt;Internet&lt;/font&gt;" style="sketch=0;outlineConnect=0;fontColor=#232F3E;gradientColor=none;fillColor=#000000;strokeColor=none;dashed=0;verticalLabelPosition=bottom;verticalAlign=top;align=center;html=1;fontSize=12;fontStyle=0;aspect=fixed;pointerEvents=1;shape=mxgraph.aws4.internet_alt2;" vertex="1" parent="1">
          <mxGeometry x="145" y="137.5" width="78" height="78" as="geometry" />
        </mxCell>
        <mxCell id="P_Gc4P2CAjgiyAQ91wl4-16" value="" style="endArrow=none;dashed=1;html=1;rounded=0;" edge="1" parent="1" source="P_Gc4P2CAjgiyAQ91wl4-44" target="P_Gc4P2CAjgiyAQ91wl4-7">
          <mxGeometry width="50" height="50" relative="1" as="geometry">
            <mxPoint x="612.7120000000002" y="329.78693" as="sourcePoint" />
            <mxPoint x="520" y="393" as="targetPoint" />
          </mxGeometry>
        </mxCell>
        <mxCell id="P_Gc4P2CAjgiyAQ91wl4-36" value="&lt;font style=&quot;font-size: 16px;&quot;&gt;Device&lt;/font&gt;" style="sketch=0;outlineConnect=0;fontColor=#232F3E;gradientColor=none;fillColor=#000000;strokeColor=none;dashed=0;verticalLabelPosition=bottom;verticalAlign=top;align=center;html=1;fontSize=12;fontStyle=0;aspect=fixed;pointerEvents=1;shape=mxgraph.aws4.iot_thing_freertos_device;" vertex="1" parent="1">
          <mxGeometry x="778" y="135" width="78" height="78" as="geometry" />
        </mxCell>
        <mxCell id="P_Gc4P2CAjgiyAQ91wl4-44" value="&lt;font style=&quot;font-size: 16px;&quot;&gt;Gateway&lt;/font&gt;" style="sketch=0;outlineConnect=0;fontColor=#232F3E;gradientColor=none;fillColor=#000000;strokeColor=none;dashed=0;verticalLabelPosition=bottom;verticalAlign=top;align=center;html=1;fontSize=12;fontStyle=0;aspect=fixed;pointerEvents=1;shape=mxgraph.aws4.iot_device_gateway;" vertex="1" parent="1">
          <mxGeometry x="449" y="140" width="78" height="73" as="geometry" />
        </mxCell>
        <mxCell id="P_Gc4P2CAjgiyAQ91wl4-45" value="" style="endArrow=none;dashed=1;html=1;rounded=0;" edge="1" parent="1" source="P_Gc4P2CAjgiyAQ91wl4-36" target="P_Gc4P2CAjgiyAQ91wl4-44">
          <mxGeometry width="50" height="50" relative="1" as="geometry">
            <mxPoint x="846" y="329" as="sourcePoint" />
            <mxPoint x="968" y="331.0078802588996" as="targetPoint" />
          </mxGeometry>
        </mxCell>
        <mxCell id="P_Gc4P2CAjgiyAQ91wl4-47" value="" style="strokeWidth=2;html=1;shape=mxgraph.flowchart.annotation_2;align=left;labelPosition=right;pointerEvents=1;rotation=90;" vertex="1" parent="1">
          <mxGeometry x="463" y="65" width="50" height="428" as="geometry" />
        </mxCell>
        <mxCell id="P_Gc4P2CAjgiyAQ91wl4-48" value="&lt;font style=&quot;font-size: 14px;&quot;&gt;Service&lt;/font&gt;&lt;div style=&quot;font-size: 14px;&quot;&gt;&lt;b&gt;&lt;font style=&quot;font-size: 14px;&quot;&gt;Grafana&lt;/font&gt;&lt;/b&gt;&lt;/div&gt;" style="rounded=1;whiteSpace=wrap;html=1;absoluteArcSize=1;arcSize=14;strokeWidth=2;" vertex="1" parent="1">
          <mxGeometry x="300" y="301" width="100" height="100" as="geometry" />
        </mxCell>
        <mxCell id="P_Gc4P2CAjgiyAQ91wl4-49" value="&lt;font style=&quot;font-size: 14px;&quot;&gt;Service&lt;/font&gt;&lt;div style=&quot;font-size: 14px;&quot;&gt;&lt;b style=&quot;&quot;&gt;&lt;font style=&quot;font-size: 14px;&quot;&gt;Home Station&lt;/font&gt;&lt;/b&gt;&lt;/div&gt;" style="rounded=1;whiteSpace=wrap;html=1;absoluteArcSize=1;arcSize=14;strokeWidth=2;" vertex="1" parent="1">
          <mxGeometry x="572" y="301" width="100" height="100" as="geometry" />
        </mxCell>
        <mxCell id="P_Gc4P2CAjgiyAQ91wl4-50" value="&lt;font style=&quot;font-size: 14px;&quot;&gt;Service&lt;/font&gt;&lt;div style=&quot;font-size: 14px;&quot;&gt;&lt;b&gt;&lt;font style=&quot;font-size: 14px;&quot;&gt;InfluxDB&lt;/font&gt;&lt;/b&gt;&lt;/div&gt;" style="rounded=1;whiteSpace=wrap;html=1;absoluteArcSize=1;arcSize=14;strokeWidth=2;" vertex="1" parent="1">
          <mxGeometry x="438" y="301" width="100" height="100" as="geometry" />
        </mxCell>
        <mxCell id="P_Gc4P2CAjgiyAQ91wl4-51" value="&lt;font style=&quot;font-size: 16px;&quot;&gt;Raspberry Pi 3 B&lt;/font&gt;" style="text;html=1;align=center;verticalAlign=middle;whiteSpace=wrap;rounded=0;" vertex="1" parent="1">
          <mxGeometry x="256" y="248" width="165" height="30" as="geometry" />
        </mxCell>
        <mxCell id="P_Gc4P2CAjgiyAQ91wl4-52" value="&lt;span style=&quot;font-size: 16px;&quot;&gt;Distribution Linux&lt;/span&gt;" style="text;html=1;align=center;verticalAlign=middle;whiteSpace=wrap;rounded=0;" vertex="1" parent="1">
          <mxGeometry x="543" y="246" width="165" height="30" as="geometry" />
        </mxCell>
        <mxCell id="P_Gc4P2CAjgiyAQ91wl4-53" value="&lt;font style=&quot;font-size: 16px;&quot;&gt;UI&lt;/font&gt;" style="text;html=1;align=center;verticalAlign=middle;whiteSpace=wrap;rounded=0;" vertex="1" parent="1">
          <mxGeometry x="320" y="409" width="60" height="30" as="geometry" />
        </mxCell>
        <mxCell id="P_Gc4P2CAjgiyAQ91wl4-54" value="&lt;font style=&quot;font-size: 16px;&quot;&gt;Database&lt;/font&gt;" style="text;html=1;align=center;verticalAlign=middle;whiteSpace=wrap;rounded=0;" vertex="1" parent="1">
          <mxGeometry x="458" y="409" width="60" height="30" as="geometry" />
        </mxCell>
        <mxCell id="P_Gc4P2CAjgiyAQ91wl4-56" value="&lt;font style=&quot;font-size: 16px;&quot;&gt;Data collector&lt;/font&gt;" style="text;html=1;align=center;verticalAlign=middle;whiteSpace=wrap;rounded=0;" vertex="1" parent="1">
          <mxGeometry x="568.5" y="409" width="107" height="30" as="geometry" />
        </mxCell>
      </root>
    </mxGraphModel>
  </diagram>
</mxfile>
